<svg width="240" height="92" viewBox="0 0 240 92" fill="none" xmlns="http://www.w3.org/2000/svg">
<g clip-path="url(#clip0_3587_4222)">
<path d="M2.22412 90.5452V11.3586H0V9.90381H11.726V11.3586H9.50189V90.5452H11.726V92H0V90.5452H2.22412Z" fill="white"/>
<path d="M20.3848 70.9572V30.9448C20.3848 24.9663 22.6436 19.2513 26.5816 15.262C29.9324 11.8655 34.2581 9.96237 38.7594 9.90381H38.8161C43.299 9.97518 47.6101 11.8765 50.9481 15.262C54.8367 19.2001 57.0937 24.8455 57.1431 30.749V38.2391H49.8671V23.9854C49.8251 20.4207 48.4478 17.0041 46.092 14.6178C44.0746 12.5737 41.4755 11.4172 38.7685 11.3586C36.0579 11.4135 33.4551 12.5719 31.4377 14.616C29.0819 17.0023 27.7064 20.4207 27.6625 23.9946V77.9147C27.7046 81.4795 29.0819 84.8961 31.4359 87.2823C33.4533 89.3264 36.056 90.4848 38.7648 90.5415C42.946 90.483 46.9644 88.7134 50.0793 85.5567C53.7465 81.8437 55.8481 76.5221 55.8481 70.9553V70.4173H57.1431V70.9553C57.1431 76.932 54.8842 82.6488 50.9463 86.6364C47.5955 90.0328 43.2716 91.936 38.7703 91.9963H38.7612L38.7667 91.4583L38.7575 91.9963C34.2562 91.936 29.9324 90.0328 26.5816 86.6364C22.6436 82.6488 20.3848 76.932 20.3848 70.9553V70.9572Z" fill="white"/>
<path d="M117.331 9.90381L146.165 87.6355V16.2209C146.06 14.9015 145.526 13.679 144.656 12.7769C143.774 11.8619 142.629 11.3586 141.427 11.3586H140.948V9.90381H149.682V11.3586H147.458V92H140.396L111.563 14.2683V85.6811C111.667 87.0005 112.201 88.2229 113.072 89.1251C113.953 90.0401 115.098 90.5433 116.3 90.5433H116.779V91.9982H108.045V90.5433H110.27V11.3586H108.045V9.90381H117.331Z" fill="white"/>
<path d="M158.972 90.5433V11.3568H156.748V9.90198H196.163V23.9854H194.869V23.4474C194.869 17.037 190.415 11.7283 184.728 11.355H166.251V50.2199H177.836C181.35 49.9857 184.101 46.7045 184.101 42.7427V42.2046H185.396V59.6882H184.101V59.1502C184.101 55.1901 181.35 51.9071 177.836 51.6729H166.251V90.5379H184.728C190.417 90.1645 194.869 84.8558 194.869 78.4454V77.9074H196.163V91.9908H156.748V90.536H158.972V90.5433Z" fill="white"/>
<path d="M203.24 70.9572V30.9448C203.24 24.9663 205.498 19.2513 209.436 15.262C212.787 11.8655 217.113 9.96237 221.614 9.90381H221.671C226.154 9.97518 230.465 11.8765 233.803 15.262C237.692 19.2001 239.949 24.8455 239.998 30.749V38.2391H232.722V23.9854C232.68 20.4207 231.303 17.0041 228.947 14.6178C226.931 12.5737 224.33 11.4172 221.623 11.3586C218.913 11.4135 216.31 12.5719 214.291 14.616C211.935 17.0023 210.559 20.4207 210.516 23.9946V77.9147C210.558 81.4795 211.935 84.8961 214.291 87.2823C216.308 89.3264 218.911 90.4848 221.62 90.5415C225.801 90.483 229.819 88.7134 232.934 85.5567C236.601 81.8437 238.703 76.5221 238.703 70.9553V70.4173H239.998V70.9553C239.998 76.932 237.739 82.6488 233.801 86.6364C230.45 90.0328 226.126 91.936 221.625 91.9963H221.616L221.62 91.4583L221.611 91.9963C217.109 91.936 212.785 90.0328 209.435 86.6364C205.497 82.6488 203.238 76.932 203.238 70.9553L203.24 70.9572Z" fill="white"/>
<path d="M85.4328 10.1454C87.3899 7.72614 91.4321 2.92063 91.4321 2.92063V1.12726H90.1828V2.38628C90.1828 2.38628 84.0811 9.92576 84.0793 9.92759V11.5032C86.2394 11.8765 88.3154 12.9525 89.9597 14.6178C92.3155 17.0041 93.6909 20.4207 93.7348 23.9854V77.9056C93.6928 81.4795 92.3155 84.8979 89.9597 87.2842C87.9404 89.3301 85.3359 90.4884 82.6252 90.5433H82.5521C79.8414 90.4884 77.2369 89.3301 75.2176 87.2842C72.8618 84.8979 71.4863 81.4813 71.4424 77.9165V23.9964C71.4845 20.4225 72.8618 17.0041 75.2176 14.6178C76.9387 12.8738 79.172 11.7759 81.4455 11.4556V9.93491L75.32 2.38445V1.12543H74.0708V2.91697C74.0708 2.91697 78.1532 7.71699 80.1085 10.1179C76.6552 10.6468 73.5477 12.237 70.8553 14.7788C70.6889 14.9362 70.5261 15.0954 70.3633 15.2601C66.4254 19.2476 64.1665 24.9645 64.1665 30.943V70.9535C64.1665 76.932 66.4254 82.647 70.3633 86.6364C73.7141 90.0328 78.038 91.936 82.5429 91.9963H82.596H82.6417C87.1411 91.936 91.465 90.0328 94.8158 86.6364C98.7538 82.6488 101.013 76.932 101.013 70.9553V30.943C101.013 24.9645 98.7538 19.2495 94.8158 15.2601C92.1125 12.5207 88.9866 10.7547 85.4365 10.1417" fill="white"/>
<path d="M87.5711 0H77.9065L76.5347 2.38628L82.7589 9.91113L88.9502 2.38628L87.5711 0ZM82.1187 7.18264L77.9668 2.21061L78.6161 1.14373H82.1187V7.18264ZM83.3735 7.18264V1.14373H86.8761L87.5254 2.21061L83.3735 7.18264Z" fill="white"/>
</g>
<defs>
<clipPath id="clip0_3587_4222">
<rect width="240" height="92" fill="white"/>
</clipPath>
</defs>
</svg>
